<svg width="1474" height="1330" viewBox="0 0 1474 1330" fill="none" xmlns="http://www.w3.org/2000/svg">
<g clip-path="url(#clip0_869_2)">
<rect width="1474" height="1330" fill="white"/>
<path d="M997.471 977.609L975.985 997.352C971.508 1001.44 964.725 1001.24 960.635 996.766L940.891 975.279" stroke="#274867" stroke-width="8" stroke-miterlimit="10" stroke-linecap="round"/>
<path d="M968.494 996.924L967.76 791.531" stroke="#274867" stroke-width="8" stroke-miterlimit="10" stroke-linecap="round"/>
<rect x="488" y="486" width="961" height="308" rx="16" fill="#007BFF"/>
<rect x="488" y="1005" width="961" height="308" rx="16" fill="#274867"/>
<path d="M669.97 89.91C679.84 89.91 685.72 83.68 685.72 73.04V39.02H679.42V73.11C679.42 80.67 675.71 84.17 670.11 84.17C664.3 84.17 660.73 80.88 660.17 73.95H653.87C654.5 84.31 660.8 89.91 669.97 89.91ZM720.162 89H725.762V64.99C725.762 57.08 720.092 52.81 711.202 52.81C703.292 52.81 697.692 56.59 697.202 63.1H703.152C703.432 60.02 706.092 57.99 711.342 57.99C717.502 57.99 719.952 61.07 719.952 65.34V66.74H708.472C698.672 66.74 694.962 72.76 694.962 78.43C694.962 84.45 699.512 89.91 707.632 89.91C712.672 89.91 716.452 88.02 718.622 85.29H720.162V89ZM709.102 84.73C703.852 84.73 700.912 82.21 700.912 78.22C700.912 74.02 703.572 71.5 709.382 71.5H719.952V74.72C719.952 80.32 714.982 84.73 709.102 84.73ZM744.147 89H755.277L767.107 53.72H760.877L751.357 83.4H748.487L738.617 53.72H732.457L744.147 89ZM796.178 89H801.778V64.99C801.778 57.08 796.108 52.81 787.218 52.81C779.308 52.81 773.708 56.59 773.218 63.1H779.168C779.448 60.02 782.108 57.99 787.358 57.99C793.518 57.99 795.968 61.07 795.968 65.34V66.74H784.488C774.688 66.74 770.978 72.76 770.978 78.43C770.978 84.45 775.528 89.91 783.648 89.91C788.688 89.91 792.468 88.02 794.638 85.29H796.178V89ZM785.118 84.73C779.868 84.73 776.928 82.21 776.928 78.22C776.928 74.02 779.588 71.5 785.398 71.5H795.968V74.72C795.968 80.32 790.998 84.73 785.118 84.73ZM832.785 39.02V89H839.085V68.98H853.925C864.845 68.98 870.865 63.38 870.865 53.93C870.865 44.62 864.845 39.02 853.925 39.02H832.785ZM839.085 63.38V44.62H852.875C861.415 44.62 864.495 48.19 864.495 54C864.495 59.81 861.415 63.38 852.875 63.38H839.085ZM901.632 38.11C886.372 38.11 878.322 49.66 878.322 64.01C878.322 78.36 886.372 89.91 901.632 89.91C916.822 89.91 924.942 78.36 924.942 64.01C924.942 49.66 916.822 38.11 901.632 38.11ZM901.632 84.17C889.732 84.17 884.692 74.44 884.692 64.01C884.692 53.58 889.732 43.85 901.632 43.85C913.532 43.85 918.572 53.58 918.572 64.01C918.572 74.44 913.532 84.17 901.632 84.17ZM947.167 89.91C957.037 89.91 962.917 83.68 962.917 73.04V39.02H956.617V73.11C956.617 80.67 952.907 84.17 947.307 84.17C941.497 84.17 937.927 80.88 937.367 73.95H931.067C931.697 84.31 937.997 89.91 947.167 89.91ZM996.309 38.11C981.049 38.11 972.999 49.66 972.999 64.01C972.999 78.36 981.049 89.91 996.309 89.91C1011.5 89.91 1019.62 78.36 1019.62 64.01C1019.62 49.66 1011.5 38.11 996.309 38.11ZM996.309 84.17C984.409 84.17 979.369 74.44 979.369 64.01C979.369 53.58 984.409 43.85 996.309 43.85C1008.21 43.85 1013.25 53.58 1013.25 64.01C1013.25 74.44 1008.21 84.17 996.309 84.17ZM1072.59 78.36C1071.68 82.28 1068.74 84.73 1063.7 84.73C1055.79 84.73 1052.5 78.29 1052.5 71.22C1052.5 64.22 1055.72 57.99 1063.7 57.99C1068.53 57.99 1071.26 60.37 1072.38 63.94H1078.33C1077.14 57.43 1072.1 52.81 1063.7 52.81C1052.71 52.81 1046.55 60.72 1046.55 71.36C1046.55 81.79 1052.71 89.91 1063.7 89.91C1071.89 89.91 1077.21 85.29 1078.54 78.36H1072.59ZM1087.41 38.11V89H1093.36V38.11H1087.41ZM1127.31 89H1132.91V64.99C1132.91 57.08 1127.24 52.81 1118.35 52.81C1110.44 52.81 1104.84 56.59 1104.35 63.1H1110.3C1110.58 60.02 1113.24 57.99 1118.49 57.99C1124.65 57.99 1127.1 61.07 1127.1 65.34V66.74H1115.62C1105.82 66.74 1102.11 72.76 1102.11 78.43C1102.11 84.45 1106.66 89.91 1114.78 89.91C1119.82 89.91 1123.6 88.02 1125.77 85.29H1127.31V89ZM1116.25 84.73C1111 84.73 1108.06 82.21 1108.06 78.22C1108.06 74.02 1110.72 71.5 1116.53 71.5H1127.1V74.72C1127.1 80.32 1122.13 84.73 1116.25 84.73ZM1153.61 67.02C1150.04 66.46 1148.29 65.41 1148.29 62.68C1148.29 59.67 1151.37 57.99 1155.92 57.99C1160.33 57.99 1163.69 59.53 1164.18 62.89H1170.13C1169.36 56.73 1164.53 52.81 1156.2 52.81C1146.68 52.81 1142.27 57.36 1142.27 63.24C1142.27 68.56 1145.7 71.22 1150.74 72.13L1158.65 73.46C1163.13 74.23 1165.09 75.91 1165.09 78.99C1165.09 82.84 1161.59 84.73 1156.27 84.73C1150.95 84.73 1147.45 82.77 1146.89 78.78H1140.87C1141.64 85.5 1146.54 89.91 1156.55 89.91C1166.07 89.91 1171.04 84.66 1171.04 78.85C1171.04 72.41 1167.12 69.26 1160.96 68.21L1156.97 67.58L1153.61 67.02ZM1189.56 67.02C1185.99 66.46 1184.24 65.41 1184.24 62.68C1184.24 59.67 1187.32 57.99 1191.87 57.99C1196.28 57.99 1199.64 59.53 1200.13 62.89H1206.08C1205.31 56.73 1200.48 52.81 1192.15 52.81C1182.63 52.81 1178.22 57.36 1178.22 63.24C1178.22 68.56 1181.65 71.22 1186.69 72.13L1194.6 73.46C1199.08 74.23 1201.04 75.91 1201.04 78.99C1201.04 82.84 1197.54 84.73 1192.22 84.73C1186.9 84.73 1183.4 82.77 1182.84 78.78H1176.82C1177.59 85.5 1182.49 89.91 1192.5 89.91C1202.02 89.91 1206.99 84.66 1206.99 78.85C1206.99 72.41 1203.07 69.26 1196.91 68.21L1192.92 67.58L1189.56 67.02ZM1246.31 69.26C1246.1 60.58 1241.06 52.81 1230.56 52.81C1219.85 52.81 1213.55 60.16 1213.55 71.01C1213.55 81.86 1219.71 89.91 1230.7 89.91C1239.45 89.91 1244.56 85.29 1245.68 79.27H1239.66C1238.61 82.63 1235.67 84.73 1230.7 84.73C1223.42 84.73 1219.64 79.69 1219.43 71.29H1246.31V69.26ZM1230.42 57.99C1236.37 57.99 1239.8 61.84 1240.15 66.32H1219.78C1220.55 61.84 1224.05 57.99 1230.42 57.99ZM1265.37 67.02C1261.8 66.46 1260.05 65.41 1260.05 62.68C1260.05 59.67 1263.13 57.99 1267.68 57.99C1272.09 57.99 1275.45 59.53 1275.94 62.89H1281.89C1281.12 56.73 1276.29 52.81 1267.96 52.81C1258.44 52.81 1254.03 57.36 1254.03 63.24C1254.03 68.56 1257.46 71.22 1262.5 72.13L1270.41 73.46C1274.89 74.23 1276.85 75.91 1276.85 78.99C1276.85 82.84 1273.35 84.73 1268.03 84.73C1262.71 84.73 1259.21 82.77 1258.65 78.78H1252.63C1253.4 85.5 1258.3 89.91 1268.31 89.91C1277.83 89.91 1282.8 84.66 1282.8 78.85C1282.8 72.41 1278.88 69.26 1272.72 68.21L1268.73 67.58L1265.37 67.02Z" fill="#274867"/>
<path d="M93.4169 597H99.5769V554.16H101.117L113.927 577.89H120.507L133.317 554.16H134.857V597H141.017V547.02H130.447L118.057 570.47H116.517L103.917 547.02H93.4169V597ZM183.738 577.26C183.528 568.58 178.488 560.81 167.988 560.81C157.278 560.81 150.978 568.16 150.978 579.01C150.978 589.86 157.138 597.91 168.128 597.91C176.878 597.91 181.988 593.29 183.108 587.27H177.088C176.038 590.63 173.098 592.73 168.128 592.73C160.848 592.73 157.068 587.69 156.858 579.29H183.738V577.26ZM167.848 565.99C173.798 565.99 177.228 569.84 177.578 574.32H157.208C157.978 569.84 161.478 565.99 167.848 565.99ZM201.192 561.72V551.08H195.242V561.72H189.152V566.9H195.242V587.13C195.242 594.62 199.722 597 207.352 597H210.082V591.68H207.492C202.732 591.68 201.192 589.86 201.192 586.29V566.9H210.082V561.72H201.192ZM242.337 597H247.937V572.99C247.937 565.08 242.267 560.81 233.377 560.81C225.467 560.81 219.867 564.59 219.377 571.1H225.327C225.607 568.02 228.267 565.99 233.517 565.99C239.677 565.99 242.127 569.07 242.127 573.34V574.74H230.647C220.847 574.74 217.137 580.76 217.137 586.43C217.137 592.45 221.687 597.91 229.807 597.91C234.847 597.91 238.627 596.02 240.797 593.29H242.337V597ZM231.277 592.73C226.027 592.73 223.087 590.21 223.087 586.22C223.087 582.02 225.747 579.5 231.557 579.5H242.127V582.72C242.127 588.32 237.157 592.73 231.277 592.73ZM284.452 546.11V565.5H282.912C280.952 562.98 277.732 560.81 272.132 560.81C262.402 560.81 256.662 568.72 256.662 579.36C256.662 589.79 262.402 597.91 272.132 597.91C277.732 597.91 281.162 595.67 283.122 593.22H284.662V597H290.402V546.11H284.452ZM273.462 592.73C266.392 592.73 262.612 587.2 262.612 579.36C262.612 571.52 266.392 565.99 273.462 565.99C281.302 565.99 284.522 572.43 284.522 579.36C284.522 586.29 281.302 592.73 273.462 592.73ZM324.368 597H329.968V572.99C329.968 565.08 324.298 560.81 315.408 560.81C307.498 560.81 301.898 564.59 301.408 571.1H307.358C307.638 568.02 310.298 565.99 315.548 565.99C321.708 565.99 324.158 569.07 324.158 573.34V574.74H312.678C302.878 574.74 299.168 580.76 299.168 586.43C299.168 592.45 303.718 597.91 311.838 597.91C316.878 597.91 320.658 596.02 322.828 593.29H324.368V597ZM313.308 592.73C308.058 592.73 305.118 590.21 305.118 586.22C305.118 582.02 307.778 579.5 313.588 579.5H324.158V582.72C324.158 588.32 319.188 592.73 313.308 592.73ZM349.053 561.72V551.08H343.103V561.72H337.013V566.9H343.103V587.13C343.103 594.62 347.583 597 355.213 597H357.943V591.68H355.353C350.593 591.68 349.053 589.86 349.053 586.29V566.9H357.943V561.72H349.053ZM390.198 597H395.798V572.99C395.798 565.08 390.128 560.81 381.238 560.81C373.328 560.81 367.728 564.59 367.238 571.1H373.188C373.468 568.02 376.128 565.99 381.378 565.99C387.538 565.99 389.988 569.07 389.988 573.34V574.74H378.508C368.708 574.74 364.998 580.76 364.998 586.43C364.998 592.45 369.548 597.91 377.668 597.91C382.708 597.91 386.488 596.02 388.658 593.29H390.198V597ZM379.138 592.73C373.888 592.73 370.948 590.21 370.948 586.22C370.948 582.02 373.608 579.5 379.418 579.5H389.988V582.72C389.988 588.32 385.018 592.73 379.138 592.73Z" fill="#274867"/>
<path d="M1039.51 867.76V862.02H1004.58V912H1010.88V889.74H1034.05V884H1010.88V867.76H1039.51ZM1054.62 867.55V861.11H1048.32V867.55H1054.62ZM1054.41 876.72H1048.46V912H1054.41V876.72ZM1097.45 912V889.6C1097.45 881.13 1092.69 875.81 1084.01 875.81C1079.25 875.81 1075.33 877.77 1073.37 880.5H1071.83V876.72H1066.09V912H1072.04V892.89C1072.04 886.66 1076.24 881.13 1082.54 881.13C1088.49 881.13 1091.5 884.35 1091.5 890.86V912H1097.45ZM1130.81 912H1136.41V887.99C1136.41 880.08 1130.74 875.81 1121.85 875.81C1113.94 875.81 1108.34 879.59 1107.85 886.1H1113.8C1114.08 883.02 1116.74 880.99 1121.99 880.99C1128.15 880.99 1130.6 884.07 1130.6 888.34V889.74H1119.12C1109.32 889.74 1105.61 895.76 1105.61 901.43C1105.61 907.45 1110.16 912.91 1118.28 912.91C1123.32 912.91 1127.1 911.02 1129.27 908.29H1130.81V912ZM1119.75 907.73C1114.5 907.73 1111.56 905.21 1111.56 901.22C1111.56 897.02 1114.22 894.5 1120.03 894.5H1130.6V897.72C1130.6 903.32 1125.63 907.73 1119.75 907.73ZM1147.3 861.11V912H1153.25V861.11H1147.3ZM1204.38 876.72H1201.72C1196.61 876.72 1193.25 878.75 1191.5 880.92H1189.96V876.72H1184.22V912H1190.17V894.36C1190.17 886.59 1194.44 882.32 1201.44 882.32H1204.38V876.72ZM1242.76 892.26C1242.55 883.58 1237.51 875.81 1227.01 875.81C1216.3 875.81 1210 883.16 1210 894.01C1210 904.86 1216.16 912.91 1227.15 912.91C1235.9 912.91 1241.01 908.29 1242.13 902.27H1236.11C1235.06 905.63 1232.12 907.73 1227.15 907.73C1219.87 907.73 1216.09 902.69 1215.88 894.29H1242.76V892.26ZM1226.87 880.99C1232.82 880.99 1236.25 884.84 1236.6 889.32H1216.23C1217 884.84 1220.5 880.99 1226.87 880.99ZM1261.83 890.02C1258.26 889.46 1256.51 888.41 1256.51 885.68C1256.51 882.67 1259.59 880.99 1264.14 880.99C1268.55 880.99 1271.91 882.53 1272.4 885.89H1278.35C1277.58 879.73 1272.75 875.81 1264.42 875.81C1254.9 875.81 1250.49 880.36 1250.49 886.24C1250.49 891.56 1253.92 894.22 1258.96 895.13L1266.87 896.46C1271.35 897.23 1273.31 898.91 1273.31 901.99C1273.31 905.84 1269.81 907.73 1264.49 907.73C1259.17 907.73 1255.67 905.77 1255.11 901.78H1249.09C1249.86 908.5 1254.76 912.91 1264.77 912.91C1274.29 912.91 1279.26 907.66 1279.26 901.85C1279.26 895.41 1275.34 892.26 1269.18 891.21L1265.19 890.58L1261.83 890.02ZM1287.43 876.72V899.12C1287.43 907.59 1292.19 912.91 1300.87 912.91C1305.63 912.91 1309.55 910.95 1311.51 908.22H1313.05V912H1318.79V876.72H1312.84V895.83C1312.84 902.2 1308.57 907.59 1302.34 907.59C1296.39 907.59 1293.38 904.37 1293.38 897.86V876.72H1287.43ZM1330.23 861.11V912H1336.18V861.11H1330.23ZM1355.85 876.72V866.08H1349.9V876.72H1343.81V881.9H1349.9V902.13C1349.9 909.62 1354.38 912 1362.01 912H1364.74V906.68H1362.15C1357.39 906.68 1355.85 904.86 1355.85 901.29V881.9H1364.74V876.72H1355.85Z" fill="#274867"/>
<path d="M658.528 616.02H619.328V621.62H635.848V666H642.148V621.62H658.528V616.02ZM696.936 666V643.6C696.936 635.13 692.176 629.81 683.566 629.81C678.806 629.81 674.956 631.77 673.066 634.5H671.526V615.11H665.576V666H671.526V646.89C671.526 640.66 675.726 635.13 682.026 635.13C687.976 635.13 690.986 638.49 690.986 644.86V666H696.936ZM738.412 646.26C738.202 637.58 733.162 629.81 722.662 629.81C711.952 629.81 705.652 637.16 705.652 648.01C705.652 658.86 711.812 666.91 722.802 666.91C731.552 666.91 736.662 662.29 737.782 656.27H731.762C730.712 659.63 727.772 661.73 722.802 661.73C715.522 661.73 711.742 656.69 711.532 648.29H738.412V646.26ZM722.522 634.99C728.472 634.99 731.902 638.84 732.252 643.32H711.882C712.652 638.84 716.152 634.99 722.522 634.99ZM781.788 636.11C777.588 635.2 773.318 633.66 773.318 628.83C773.318 623.58 778.358 620.85 784.378 620.85C791.658 620.85 795.088 623.58 796.278 628.62H802.648C801.528 620.57 794.878 615.11 784.518 615.11C773.248 615.11 766.948 621.2 766.948 628.97C766.948 636.25 771.778 640.17 779.058 641.64C781.508 642.2 786.408 643.11 788.928 643.67C793.828 644.79 797.398 646.82 797.398 652.21C797.398 657.95 792.078 661.17 785.148 661.17C778.288 661.17 772.268 658.86 771.148 652.07H764.778C765.548 660.75 773.178 666.91 784.868 666.91C797.538 666.91 803.768 659.91 803.768 652.07C803.768 643.53 798.728 639.68 791.238 638C788.648 637.44 783.958 636.46 781.788 636.11ZM830.582 634.99C837.652 634.99 841.432 640.52 841.432 648.36C841.432 656.2 837.652 661.73 830.582 661.73C822.742 661.73 819.522 655.29 819.522 648.36C819.522 641.43 822.742 634.99 830.582 634.99ZM813.642 630.72V680H819.592V662.22H821.132C823.022 664.74 826.312 666.91 831.912 666.91C841.642 666.91 847.382 659 847.382 648.36C847.382 637.93 841.642 629.81 831.912 629.81C826.312 629.81 822.882 632.05 820.922 634.5H819.382V630.72H813.642ZM876.869 630.72H874.209C869.099 630.72 865.739 632.75 863.989 634.92H862.449V630.72H856.709V666H862.659V648.36C862.659 640.59 866.929 636.32 873.929 636.32H876.869V630.72ZM890.968 621.55V615.11H884.668V621.55H890.968ZM890.758 630.72H884.808V666H890.758V630.72ZM933.801 666V643.6C933.801 635.13 929.041 629.81 920.361 629.81C915.601 629.81 911.681 631.77 909.721 634.5H908.181V630.72H902.441V666H908.391V646.89C908.391 640.66 912.591 635.13 918.891 635.13C924.841 635.13 927.851 638.35 927.851 644.86V666H933.801ZM970.517 630.72V634.5H968.977C967.087 632.05 963.727 629.81 958.197 629.81C948.467 629.81 942.517 637.51 942.517 647.87C942.517 658.16 948.467 665.86 958.197 665.86C963.517 665.86 966.877 663.62 968.767 661.17H970.307V663.97C970.307 671.04 967.017 675.45 959.737 675.45C954.417 675.45 950.777 673.91 949.727 669.71H943.847C944.897 676.71 950.777 680.49 959.807 680.49C970.097 680.49 976.257 674.12 976.257 664.25V630.72H970.517ZM959.317 660.68C952.387 660.68 948.467 655.5 948.467 647.87C948.467 640.1 952.387 634.99 959.317 634.99C966.877 634.99 970.447 641.08 970.447 647.87C970.447 654.59 966.877 660.68 959.317 660.68ZM1031.11 655.36C1030.2 659.28 1027.26 661.73 1022.22 661.73C1014.31 661.73 1011.02 655.29 1011.02 648.22C1011.02 641.22 1014.24 634.99 1022.22 634.99C1027.05 634.99 1029.78 637.37 1030.9 640.94H1036.85C1035.66 634.43 1030.62 629.81 1022.22 629.81C1011.23 629.81 1005.07 637.72 1005.07 648.36C1005.07 658.79 1011.23 666.91 1022.22 666.91C1030.41 666.91 1035.73 662.29 1037.06 655.36H1031.11ZM1061.12 629.81C1050.06 629.81 1043.76 637.93 1043.76 648.36C1043.76 658.79 1050.06 666.91 1061.12 666.91C1072.11 666.91 1078.48 658.79 1078.48 648.36C1078.48 637.93 1072.11 629.81 1061.12 629.81ZM1061.12 661.73C1053.28 661.73 1049.71 655.29 1049.71 648.36C1049.71 641.43 1053.28 634.99 1061.12 634.99C1068.89 634.99 1072.53 641.43 1072.53 648.36C1072.53 655.29 1068.89 661.73 1061.12 661.73ZM1119.12 666V643.6C1119.12 635.13 1114.36 629.81 1105.68 629.81C1100.92 629.81 1097 631.77 1095.04 634.5H1093.5V630.72H1087.76V666H1093.71V646.89C1093.71 640.66 1097.91 635.13 1104.21 635.13C1110.16 635.13 1113.17 638.35 1113.17 644.86V666H1119.12ZM1138.2 630.72V620.08H1132.25V630.72H1126.16V635.9H1132.25V656.13C1132.25 663.62 1136.73 666 1144.36 666H1147.09V660.68H1144.5C1139.74 660.68 1138.2 658.86 1138.2 655.29V635.9H1147.09V630.72H1138.2ZM1179.34 666H1184.94V641.99C1184.94 634.08 1179.27 629.81 1170.38 629.81C1162.47 629.81 1156.87 633.59 1156.38 640.1H1162.33C1162.61 637.02 1165.27 634.99 1170.52 634.99C1176.68 634.99 1179.13 638.07 1179.13 642.34V643.74H1167.65C1157.85 643.74 1154.14 649.76 1154.14 655.43C1154.14 661.45 1158.69 666.91 1166.81 666.91C1171.85 666.91 1175.63 665.02 1177.8 662.29H1179.34V666ZM1168.28 661.73C1163.03 661.73 1160.09 659.21 1160.09 655.22C1160.09 651.02 1162.75 648.5 1168.56 648.5H1179.13V651.72C1179.13 657.32 1174.16 661.73 1168.28 661.73ZM1202.14 621.55V615.11H1195.84V621.55H1202.14ZM1201.93 630.72H1195.98V666H1201.93V630.72ZM1244.97 666V643.6C1244.97 635.13 1240.21 629.81 1231.53 629.81C1226.77 629.81 1222.85 631.77 1220.89 634.5H1219.35V630.72H1213.61V666H1219.56V646.89C1219.56 640.66 1223.76 635.13 1230.06 635.13C1236.01 635.13 1239.02 638.35 1239.02 644.86V666H1244.97ZM1286.45 646.26C1286.24 637.58 1281.2 629.81 1270.7 629.81C1259.99 629.81 1253.69 637.16 1253.69 648.01C1253.69 658.86 1259.85 666.91 1270.84 666.91C1279.59 666.91 1284.7 662.29 1285.82 656.27H1279.8C1278.75 659.63 1275.81 661.73 1270.84 661.73C1263.56 661.73 1259.78 656.69 1259.57 648.29H1286.45V646.26ZM1270.56 634.99C1276.51 634.99 1279.94 638.84 1280.29 643.32H1259.92C1260.69 638.84 1264.19 634.99 1270.56 634.99ZM1315.87 630.72H1313.21C1308.1 630.72 1304.74 632.75 1302.99 634.92H1301.45V630.72H1295.71V666H1301.66V648.36C1301.66 640.59 1305.93 636.32 1312.93 636.32H1315.87V630.72Z" fill="white"/>
<path d="M564.611 1135.02V1185H570.911V1164.07H585.471C586.801 1164.07 588.201 1164 589.531 1163.86L597.021 1185H603.531L595.551 1162.39C600.591 1160.15 603.181 1155.74 603.181 1149.58C603.181 1140.41 597.301 1135.02 586.731 1135.02H564.611ZM570.911 1158.47V1140.62H585.821C593.871 1140.62 596.811 1143.98 596.811 1149.58C596.811 1155.11 593.871 1158.47 585.821 1158.47H570.911ZM644.2 1165.26C643.99 1156.58 638.95 1148.81 628.45 1148.81C617.74 1148.81 611.44 1156.16 611.44 1167.01C611.44 1177.86 617.6 1185.91 628.59 1185.91C637.34 1185.91 642.45 1181.29 643.57 1175.27H637.55C636.5 1178.63 633.56 1180.73 628.59 1180.73C621.31 1180.73 617.53 1175.69 617.32 1167.29H644.2V1165.26ZM628.31 1153.99C634.26 1153.99 637.69 1157.84 638.04 1162.32H617.67C618.44 1157.84 621.94 1153.99 628.31 1153.99ZM675.934 1185H681.534V1160.99C681.534 1153.08 675.864 1148.81 666.974 1148.81C659.064 1148.81 653.464 1152.59 652.974 1159.1H658.924C659.204 1156.02 661.864 1153.99 667.114 1153.99C673.274 1153.99 675.724 1157.07 675.724 1161.34V1162.74H664.244C654.444 1162.74 650.734 1168.76 650.734 1174.43C650.734 1180.45 655.284 1185.91 663.404 1185.91C668.444 1185.91 672.224 1184.02 674.394 1181.29H675.934V1185ZM664.874 1180.73C659.624 1180.73 656.684 1178.21 656.684 1174.22C656.684 1170.02 659.344 1167.5 665.154 1167.5H675.724V1170.72C675.724 1176.32 670.754 1180.73 664.874 1180.73ZM718.048 1134.11V1153.5H716.508C714.548 1150.98 711.328 1148.81 705.728 1148.81C695.998 1148.81 690.258 1156.72 690.258 1167.36C690.258 1177.79 695.998 1185.91 705.728 1185.91C711.328 1185.91 714.758 1183.67 716.718 1181.22H718.258V1185H723.998V1134.11H718.048ZM707.058 1180.73C699.988 1180.73 696.208 1175.2 696.208 1167.36C696.208 1159.52 699.988 1153.99 707.058 1153.99C714.898 1153.99 718.118 1160.43 718.118 1167.36C718.118 1174.29 714.898 1180.73 707.058 1180.73ZM745.015 1199L766.155 1149.72H759.925L750.125 1172.96H748.375L737.595 1149.72H731.225L746.275 1181.71L738.995 1199H745.015ZM800.833 1149.72V1139.08H794.883V1149.72H788.793V1154.9H794.883V1175.13C794.883 1182.62 799.363 1185 806.993 1185H809.723V1179.68H807.133C802.373 1179.68 800.833 1177.86 800.833 1174.29V1154.9H809.723V1149.72H800.833ZM834.152 1148.81C823.092 1148.81 816.792 1156.93 816.792 1167.36C816.792 1177.79 823.092 1185.91 834.152 1185.91C845.142 1185.91 851.512 1177.79 851.512 1167.36C851.512 1156.93 845.142 1148.81 834.152 1148.81ZM834.152 1180.73C826.312 1180.73 822.742 1174.29 822.742 1167.36C822.742 1160.43 826.312 1153.99 834.152 1153.99C841.922 1153.99 845.562 1160.43 845.562 1167.36C845.562 1174.29 841.922 1180.73 834.152 1180.73ZM879.72 1149.72V1172.12C879.72 1180.59 884.48 1185.91 893.16 1185.91C897.92 1185.91 901.84 1183.95 903.8 1181.22H905.34V1185H911.08V1149.72H905.13V1168.83C905.13 1175.2 900.86 1180.59 894.63 1180.59C888.68 1180.59 885.67 1177.37 885.67 1170.86V1149.72H879.72ZM932.326 1163.02C928.756 1162.46 927.006 1161.41 927.006 1158.68C927.006 1155.67 930.086 1153.99 934.636 1153.99C939.046 1153.99 942.406 1155.53 942.896 1158.89H948.846C948.076 1152.73 943.246 1148.81 934.916 1148.81C925.396 1148.81 920.986 1153.36 920.986 1159.24C920.986 1164.56 924.416 1167.22 929.456 1168.13L937.366 1169.46C941.846 1170.23 943.806 1171.91 943.806 1174.99C943.806 1178.84 940.306 1180.73 934.986 1180.73C929.666 1180.73 926.166 1178.77 925.606 1174.78H919.586C920.356 1181.5 925.256 1185.91 935.266 1185.91C944.786 1185.91 949.756 1180.66 949.756 1174.85C949.756 1168.41 945.836 1165.26 939.676 1164.21L935.686 1163.58L932.326 1163.02ZM989.073 1165.26C988.863 1156.58 983.823 1148.81 973.323 1148.81C962.613 1148.81 956.313 1156.16 956.313 1167.01C956.313 1177.86 962.473 1185.91 973.463 1185.91C982.213 1185.91 987.323 1181.29 988.443 1175.27H982.423C981.373 1178.63 978.433 1180.73 973.463 1180.73C966.183 1180.73 962.403 1175.69 962.193 1167.29H989.073V1165.26ZM973.183 1153.99C979.133 1153.99 982.563 1157.84 982.913 1162.32H962.543C963.313 1157.84 966.813 1153.99 973.183 1153.99ZM1040.29 1185H1045.89V1160.99C1045.89 1153.08 1040.22 1148.81 1031.33 1148.81C1023.42 1148.81 1017.82 1152.59 1017.33 1159.1H1023.28C1023.56 1156.02 1026.22 1153.99 1031.47 1153.99C1037.63 1153.99 1040.08 1157.07 1040.08 1161.34V1162.74H1028.6C1018.8 1162.74 1015.09 1168.76 1015.09 1174.43C1015.09 1180.45 1019.64 1185.91 1027.76 1185.91C1032.8 1185.91 1036.58 1184.02 1038.75 1181.29H1040.29V1185ZM1029.23 1180.73C1023.98 1180.73 1021.04 1178.21 1021.04 1174.22C1021.04 1170.02 1023.7 1167.5 1029.51 1167.5H1040.08V1170.72C1040.08 1176.32 1035.11 1180.73 1029.23 1180.73ZM1073.72 1153.99C1080.79 1153.99 1084.57 1159.52 1084.57 1167.36C1084.57 1175.2 1080.79 1180.73 1073.72 1180.73C1065.88 1180.73 1062.66 1174.29 1062.66 1167.36C1062.66 1160.43 1065.88 1153.99 1073.72 1153.99ZM1056.78 1149.72V1199H1062.73V1181.22H1064.27C1066.16 1183.74 1069.45 1185.91 1075.05 1185.91C1084.78 1185.91 1090.52 1178 1090.52 1167.36C1090.52 1156.93 1084.78 1148.81 1075.05 1148.81C1069.45 1148.81 1066.02 1151.05 1064.06 1153.5H1062.52V1149.72H1056.78ZM1116.79 1153.99C1123.86 1153.99 1127.64 1159.52 1127.64 1167.36C1127.64 1175.2 1123.86 1180.73 1116.79 1180.73C1108.95 1180.73 1105.73 1174.29 1105.73 1167.36C1105.73 1160.43 1108.95 1153.99 1116.79 1153.99ZM1099.85 1149.72V1199H1105.8V1181.22H1107.34C1109.23 1183.74 1112.52 1185.91 1118.12 1185.91C1127.85 1185.91 1133.59 1178 1133.59 1167.36C1133.59 1156.93 1127.85 1148.81 1118.12 1148.81C1112.52 1148.81 1109.09 1151.05 1107.13 1153.5H1105.59V1149.72H1099.85ZM1142.92 1134.11V1185H1148.87V1134.11H1142.92ZM1166.65 1140.55V1134.11H1160.35V1140.55H1166.65ZM1166.44 1149.72H1160.49V1185H1166.44V1149.72ZM1201.99 1174.36C1201.08 1178.28 1198.14 1180.73 1193.1 1180.73C1185.19 1180.73 1181.9 1174.29 1181.9 1167.22C1181.9 1160.22 1185.12 1153.99 1193.1 1153.99C1197.93 1153.99 1200.66 1156.37 1201.78 1159.94H1207.73C1206.54 1153.43 1201.5 1148.81 1193.1 1148.81C1182.11 1148.81 1175.95 1156.72 1175.95 1167.36C1175.95 1177.79 1182.11 1185.91 1193.1 1185.91C1201.29 1185.91 1206.61 1181.29 1207.94 1174.36H1201.99ZM1239.28 1185H1244.88V1160.99C1244.88 1153.08 1239.21 1148.81 1230.32 1148.81C1222.41 1148.81 1216.81 1152.59 1216.32 1159.1H1222.27C1222.55 1156.02 1225.21 1153.99 1230.46 1153.99C1236.62 1153.99 1239.07 1157.07 1239.07 1161.34V1162.74H1227.59C1217.79 1162.74 1214.08 1168.76 1214.08 1174.43C1214.08 1180.45 1218.63 1185.91 1226.75 1185.91C1231.79 1185.91 1235.57 1184.02 1237.74 1181.29H1239.28V1185ZM1228.22 1180.73C1222.97 1180.73 1220.03 1178.21 1220.03 1174.22C1220.03 1170.02 1222.69 1167.5 1228.5 1167.5H1239.07V1170.72C1239.07 1176.32 1234.1 1180.73 1228.22 1180.73ZM1263.97 1149.72V1139.08H1258.02V1149.72H1251.93V1154.9H1258.02V1175.13C1258.02 1182.62 1262.5 1185 1270.13 1185H1272.86V1179.68H1270.27C1265.51 1179.68 1263.97 1177.86 1263.97 1174.29V1154.9H1272.86V1149.72H1263.97ZM1288.94 1140.55V1134.11H1282.64V1140.55H1288.94ZM1288.73 1149.72H1282.78V1185H1288.73V1149.72ZM1315.61 1148.81C1304.55 1148.81 1298.25 1156.93 1298.25 1167.36C1298.25 1177.79 1304.55 1185.91 1315.61 1185.91C1326.6 1185.91 1332.97 1177.79 1332.97 1167.36C1332.97 1156.93 1326.6 1148.81 1315.61 1148.81ZM1315.61 1180.73C1307.77 1180.73 1304.2 1174.29 1304.2 1167.36C1304.2 1160.43 1307.77 1153.99 1315.61 1153.99C1323.38 1153.99 1327.02 1160.43 1327.02 1167.36C1327.02 1174.29 1323.38 1180.73 1315.61 1180.73ZM1373.61 1185V1162.6C1373.61 1154.13 1368.85 1148.81 1360.17 1148.81C1355.41 1148.81 1351.49 1150.77 1349.53 1153.5H1347.99V1149.72H1342.25V1185H1348.2V1165.89C1348.2 1159.66 1352.4 1154.13 1358.7 1154.13C1364.65 1154.13 1367.66 1157.35 1367.66 1163.86V1185H1373.61Z" fill="white"/>
<path d="M460.841 611.958L480.585 633.445C484.676 637.922 484.474 644.704 479.998 648.795L458.511 668.538" stroke="#274867" stroke-width="8" stroke-miterlimit="10" stroke-linecap="round"/>
<path d="M480.158 641.339L30.3516 642.947" stroke="#274867" stroke-width="8" stroke-miterlimit="10" stroke-linecap="round"/>
<path d="M998.438 459.222L976.951 478.965C972.475 483.056 965.692 482.855 961.601 478.379L941.858 456.892" stroke="#274867" stroke-width="8" stroke-miterlimit="10" stroke-linecap="round"/>
<path d="M969.189 478.539L967.865 108.217" stroke="#274867" stroke-width="8" stroke-miterlimit="10" stroke-linecap="round"/>
</g>
<defs>
<clipPath id="clip0_869_2">
<rect width="1474" height="1330" fill="white"/>
</clipPath>
</defs>
</svg>
