<svg width="1474" height="1578" viewBox="0 0 1474 1578" fill="none" xmlns="http://www.w3.org/2000/svg">
<g clip-path="url(#clip0_937_676)">
<rect width="1474" height="1578" fill="white"/>
<path d="M855.499 1228L1110.5 947.5" stroke="#007BFF" stroke-width="8"/>
<path d="M1100.2 957.75L1110.81 967.813L1124.16 932.533L1089.78 947.861L1100.2 957.75Z" fill="#007BFF" stroke="#007BFF" stroke-width="8"/>
<rect x="1070.71" y="1041.47" width="202.98" height="82" transform="rotate(132.571 1070.71 1041.47)" fill="white"/>
<path d="M273.41 930.111L505.722 1229.67" stroke="#007BFF" stroke-width="8"/>
<path d="M497.4 1217.76L485.659 1226.48L518.106 1245.72L508.94 1209.2L497.4 1217.76Z" fill="#007BFF" stroke="#007BFF" stroke-width="8"/>
<rect x="351.587" y="964" width="202.98" height="82" transform="rotate(53.1146 351.587 964)" fill="white"/>
<rect x="376" y="26" width="618" height="249" rx="16" fill="#CCE5FF"/>
<rect x="25" y="646" width="618" height="249" rx="16" fill="#CCE5FF"/>
<rect x="686" y="646" width="766" height="249" rx="16" fill="#CCE5FF"/>
<path d="M1165.5 615.5L1165.5 249.127C1165.5 193.898 1120.73 149.127 1065.5 149.127L1046.79 149.127" stroke="#007BFF" stroke-width="8"/>
<path d="M1059.19 150.636L1059.19 136.016L1024.4 150.61L1059.19 165.004L1059.19 150.636Z" fill="#007BFF" stroke="#007BFF" stroke-width="8"/>
<path d="M258 615.5L258 249.127C258 193.898 302.772 149.127 358 149.127L376.709 149.127" stroke="#007BFF" stroke-width="8"/>
<path d="M258.353 583L272.972 583L258.378 617.786L243.984 583L258.353 583Z" fill="#007BFF" stroke="#007BFF" stroke-width="8"/>
<circle cx="686" cy="1376" r="184" fill="#CCE5FF"/>
<path d="M350.255 1010.48C348.065 1006.08 346.386 1001.17 350.694 997.72C355.375 993.968 361.412 996.511 365.715 1001.88C370.918 1008.37 370.935 1013.38 367.291 1018.05L371.844 1023.73C378.223 1016.97 378.339 1007.14 370.934 997.902C362.879 987.851 352.945 986.586 346.016 992.139C339.524 997.343 339.48 1004.45 343.373 1011.99C344.624 1014.58 347.315 1019.6 348.617 1022.25C351.12 1027.42 351.862 1032.05 347.055 1035.9C341.936 1040.01 335.262 1037.56 330.309 1031.38C325.406 1025.27 323.163 1018.25 328.418 1012.4L323.865 1006.71C316.675 1013.61 316.635 1024.81 324.99 1035.24C334.046 1046.54 344.741 1047.09 351.733 1041.49C359.348 1035.38 359.179 1028.14 355.324 1020.25C353.972 1017.54 351.494 1012.66 350.255 1010.48ZM385.836 1073.42C393.426 1067.03 396.753 1056.98 389.248 1047.61C381.593 1038.06 370.536 1037.7 360.86 1045.45C351.184 1053.21 348.408 1064.46 356.263 1074.26C362.517 1082.06 370.29 1083.31 376.459 1080.01L372.156 1074.64C368.409 1076.11 364.435 1074.99 360.883 1070.55C355.679 1064.06 357.472 1057.09 364.813 1050.9L384.025 1074.87L385.836 1073.42ZM384.529 1051.19C388.781 1056.5 387.8 1062.31 384.055 1065.82L369.495 1047.66C374.041 1045.14 379.976 1045.51 384.529 1051.19ZM414.321 1108.96C421.911 1102.57 425.238 1092.52 417.733 1083.15C410.078 1073.6 399.021 1073.24 389.345 1080.99C379.669 1088.75 376.893 1100 384.748 1109.8C391.002 1117.6 398.775 1118.85 404.944 1115.55L400.641 1110.18C396.894 1111.65 392.92 1110.53 389.368 1106.09C384.164 1099.6 385.957 1092.63 393.298 1086.44L412.51 1110.41L414.321 1108.96ZM413.014 1086.73C417.266 1092.04 416.285 1097.85 412.54 1101.36L397.98 1083.2C402.526 1080.68 408.461 1081.05 413.014 1086.73ZM429.944 1124.36C427.892 1120.77 427.577 1118.46 430.012 1116.51C432.696 1114.36 436.396 1115.91 439.648 1119.96C442.8 1123.9 443.828 1127.99 441.182 1130.83L445.435 1136.14C450.378 1131.05 450.421 1123.94 444.467 1116.51C437.663 1108.02 430.453 1107.34 425.21 1111.54C420.465 1115.35 420.545 1120.31 423.336 1125.45L427.803 1133.45C430.319 1138 430.221 1140.95 427.475 1143.15C424.041 1145.9 419.854 1144.13 416.052 1139.39C412.249 1134.64 411.496 1130.12 414.654 1126.77L410.351 1121.4C404.908 1126.89 404.478 1134.41 411.633 1143.34C418.437 1151.83 426.671 1152.51 431.852 1148.36C437.595 1143.75 437.603 1138.01 434.136 1131.76L431.846 1127.75L429.944 1124.36Z" fill="#274867"/>
<path d="M919.527 1108.27L947.707 1131.69C954.598 1137.42 955.838 1145.31 949.447 1153C943.055 1160.69 935.066 1160.92 928.175 1155.19L899.995 1131.77L895.394 1137.31L923.635 1160.78C934.033 1169.42 945.135 1168.45 954.492 1157.19C963.849 1145.93 962.768 1134.84 952.37 1126.2L924.129 1102.73L919.527 1108.27ZM964.653 1104.04C961.553 1106.76 959.352 1107.54 956.953 1105.54C954.307 1103.34 955.08 1099.41 958.403 1095.41C961.625 1091.53 965.433 1089.7 968.744 1091.73L973.09 1086.5C967.113 1082.68 960.139 1084.06 954.055 1091.38C947.101 1099.75 947.879 1106.95 953.048 1111.24C957.724 1115.13 962.567 1114.06 967.049 1110.29L973.995 1104.31C977.944 1100.93 980.853 1100.44 983.56 1102.69C986.944 1105.5 986.049 1109.96 982.163 1114.63C978.277 1119.31 973.998 1120.95 970.082 1118.53L965.684 1123.82C972.154 1128.06 979.609 1126.97 986.92 1118.17C993.874 1109.8 992.89 1101.6 987.783 1097.36C982.122 1092.65 976.49 1093.8 971.068 1098.44L967.6 1101.49L964.653 1104.04ZM1008.07 1055.79C1000.29 1049.64 989.778 1048.39 982.109 1057.62C974.286 1067.03 976.144 1077.94 985.681 1085.87C995.218 1093.79 1006.79 1094.26 1014.82 1084.6C1021.21 1076.91 1020.88 1069.04 1016.41 1063.66L1012.01 1068.95C1014.2 1072.33 1013.9 1076.44 1010.27 1080.81C1004.95 1087.21 997.759 1086.85 990.222 1080.9L1009.86 1057.28L1008.07 1055.79ZM986.559 1061.53C990.905 1056.3 996.795 1056.1 1000.99 1059.06L986.109 1076.96C982.734 1073.02 981.907 1067.13 986.559 1061.53ZM1020.03 1037.4C1016.93 1040.13 1014.73 1040.9 1012.33 1038.91C1009.68 1036.71 1010.45 1032.77 1013.78 1028.77C1017 1024.9 1020.81 1023.07 1024.12 1025.09L1028.46 1019.86C1022.49 1016.04 1015.51 1017.42 1009.43 1024.74C1002.48 1033.11 1003.25 1040.31 1008.42 1044.61C1013.1 1048.49 1017.94 1047.42 1022.42 1043.66L1029.37 1037.67C1033.32 1034.3 1036.23 1033.8 1038.93 1036.05C1042.32 1038.87 1041.42 1043.32 1037.54 1048C1033.65 1052.67 1029.37 1054.32 1025.46 1051.9L1021.06 1057.19C1027.53 1061.42 1034.98 1060.33 1042.29 1051.54C1049.25 1043.17 1048.26 1034.96 1043.16 1030.72C1037.5 1026.02 1031.86 1027.16 1026.44 1031.81L1022.97 1034.86L1020.03 1037.4Z" fill="#274867"/>
<rect x="207" y="393" width="110" height="82" fill="white"/>
<rect x="1116" y="393" width="110" height="82" fill="white"/>
<rect x="630" y="943" width="110" height="82" fill="white"/>
<path d="M158.927 406.88V443.52C158.927 452.48 153.647 458.48 143.647 458.48C133.647 458.48 128.367 452.48 128.367 443.52V406.88H121.167V443.6C121.167 457.12 129.007 465.04 143.647 465.04C158.287 465.04 166.127 457.12 166.127 443.6V406.88H158.927ZM199.186 428.56C207.266 428.56 211.586 434.88 211.586 443.84C211.586 452.8 207.266 459.12 199.186 459.12C190.226 459.12 186.546 451.76 186.546 443.84C186.546 435.92 190.226 428.56 199.186 428.56ZM179.826 423.68V480H186.626V459.68H188.386C190.546 462.56 194.306 465.04 200.706 465.04C211.826 465.04 218.386 456 218.386 443.84C218.386 431.92 211.826 422.64 200.706 422.64C194.306 422.64 190.386 425.2 188.146 428H186.386V423.68H179.826ZM258.324 405.84V428H256.564C254.324 425.12 250.644 422.64 244.244 422.64C233.124 422.64 226.564 431.68 226.564 443.84C226.564 455.76 233.124 465.04 244.244 465.04C250.644 465.04 254.564 462.48 256.804 459.68H258.564V464H265.124V405.84H258.324ZM245.764 459.12C237.684 459.12 233.364 452.8 233.364 443.84C233.364 434.88 237.684 428.56 245.764 428.56C254.724 428.56 258.404 435.92 258.404 443.84C258.404 451.76 254.724 459.12 245.764 459.12ZM303.943 464H310.343V436.56C310.343 427.52 303.863 422.64 293.703 422.64C284.663 422.64 278.263 426.96 277.703 434.4H284.503C284.823 430.88 287.863 428.56 293.863 428.56C300.903 428.56 303.703 432.08 303.703 436.96V438.56H290.583C279.383 438.56 275.143 445.44 275.143 451.92C275.143 458.8 280.343 465.04 289.623 465.04C295.383 465.04 299.703 462.88 302.183 459.76H303.943V464ZM291.303 459.12C285.303 459.12 281.943 456.24 281.943 451.68C281.943 446.88 284.983 444 291.623 444H303.703V447.68C303.703 454.08 298.023 459.12 291.303 459.12ZM332.154 423.68V411.52H325.354V423.68H318.394V429.6H325.354V452.72C325.354 461.28 330.474 464 339.194 464H342.314V457.92H339.354C333.914 457.92 332.154 455.84 332.154 451.76V429.6H342.314V423.68H332.154ZM387.833 441.44C387.593 431.52 381.833 422.64 369.832 422.64C357.593 422.64 350.393 431.04 350.393 443.44C350.393 455.84 357.433 465.04 369.993 465.04C379.993 465.04 385.833 459.76 387.113 452.88H380.233C379.033 456.72 375.673 459.12 369.993 459.12C361.673 459.12 357.353 453.36 357.113 443.76H387.833V441.44ZM369.673 428.56C376.473 428.56 380.393 432.96 380.793 438.08H357.513C358.393 432.96 362.393 428.56 369.673 428.56ZM409.619 438.88C405.539 438.24 403.539 437.04 403.539 433.92C403.539 430.48 407.059 428.56 412.259 428.56C417.299 428.56 421.139 430.32 421.699 434.16H428.499C427.619 427.12 422.099 422.64 412.579 422.64C401.699 422.64 396.659 427.84 396.659 434.56C396.659 440.64 400.579 443.68 406.339 444.72L415.379 446.24C420.499 447.12 422.739 449.04 422.739 452.56C422.739 456.96 418.739 459.12 412.659 459.12C406.579 459.12 402.579 456.88 401.939 452.32H395.059C395.939 460 401.539 465.04 412.979 465.04C423.859 465.04 429.539 459.04 429.539 452.4C429.539 445.04 425.059 441.44 418.019 440.24L413.459 439.52L409.619 438.88Z" fill="#274867"/>
<path d="M942.389 464H949.429V415.04H951.189L965.829 442.16H973.349L987.989 415.04H989.749V464H996.789V406.88H984.709L970.549 433.68H968.789L954.389 406.88H942.389V464ZM1036.33 464H1042.73V436.56C1042.73 427.52 1036.25 422.64 1026.09 422.64C1017.05 422.64 1010.65 426.96 1010.09 434.4H1016.89C1017.21 430.88 1020.25 428.56 1026.25 428.56C1033.29 428.56 1036.09 432.08 1036.09 436.96V438.56H1022.97C1011.77 438.56 1007.53 445.44 1007.53 451.92C1007.53 458.8 1012.73 465.04 1022.01 465.04C1027.77 465.04 1032.09 462.88 1034.57 459.76H1036.33V464ZM1023.69 459.12C1017.69 459.12 1014.33 456.24 1014.33 451.68C1014.33 446.88 1017.37 444 1024.01 444H1036.09V447.68C1036.09 454.08 1030.41 459.12 1023.69 459.12ZM1091.03 464V438.4C1091.03 428.72 1085.59 422.64 1075.67 422.64C1070.23 422.64 1065.75 424.88 1063.51 428H1061.75V423.68H1055.19V464H1061.99V442.16C1061.99 435.04 1066.79 428.72 1073.99 428.72C1080.79 428.72 1084.23 432.4 1084.23 439.84V464H1091.03ZM1110.67 413.2V405.84H1103.47V413.2H1110.67ZM1110.43 423.68H1103.63V464H1110.43V423.68ZM1143.14 428.56C1151.22 428.56 1155.54 434.88 1155.54 443.84C1155.54 452.8 1151.22 459.12 1143.14 459.12C1134.18 459.12 1130.5 451.76 1130.5 443.84C1130.5 435.92 1134.18 428.56 1143.14 428.56ZM1123.78 423.68V480H1130.58V459.68H1132.34C1134.5 462.56 1138.26 465.04 1144.66 465.04C1155.78 465.04 1162.34 456 1162.34 443.84C1162.34 431.92 1155.78 422.64 1144.66 422.64C1138.26 422.64 1134.34 425.2 1132.1 428H1130.34V423.68H1123.78ZM1172.36 423.68V449.28C1172.36 458.96 1177.8 465.04 1187.72 465.04C1193.16 465.04 1197.64 462.8 1199.88 459.68H1201.64V464H1208.2V423.68H1201.4V445.52C1201.4 452.8 1196.52 458.96 1189.4 458.96C1182.6 458.96 1179.16 455.28 1179.16 447.84V423.68H1172.36ZM1221.28 405.84V464H1228.08V405.84H1221.28ZM1266.88 464H1273.28V436.56C1273.28 427.52 1266.8 422.64 1256.64 422.64C1247.6 422.64 1241.2 426.96 1240.64 434.4H1247.44C1247.76 430.88 1250.8 428.56 1256.8 428.56C1263.84 428.56 1266.64 432.08 1266.64 436.96V438.56H1253.52C1242.32 438.56 1238.08 445.44 1238.08 451.92C1238.08 458.8 1243.28 465.04 1252.56 465.04C1258.32 465.04 1262.64 462.88 1265.12 459.76H1266.88V464ZM1254.24 459.12C1248.24 459.12 1244.88 456.24 1244.88 451.68C1244.88 446.88 1247.92 444 1254.56 444H1266.64V447.68C1266.64 454.08 1260.96 459.12 1254.24 459.12ZM1295.09 423.68V411.52H1288.29V423.68H1281.33V429.6H1288.29V452.72C1288.29 461.28 1293.41 464 1302.13 464H1305.25V457.92H1302.29C1296.85 457.92 1295.09 455.84 1295.09 451.76V429.6H1305.25V423.68H1295.09ZM1350.77 441.44C1350.53 431.52 1344.77 422.64 1332.77 422.64C1320.53 422.64 1313.33 431.04 1313.33 443.44C1313.33 455.84 1320.37 465.04 1332.93 465.04C1342.93 465.04 1348.77 459.76 1350.05 452.88H1343.17C1341.97 456.72 1338.61 459.12 1332.93 459.12C1324.61 459.12 1320.29 453.36 1320.05 443.76H1350.77V441.44ZM1332.61 428.56C1339.41 428.56 1343.33 432.96 1343.73 438.08H1320.45C1321.33 432.96 1325.33 428.56 1332.61 428.56ZM1372.56 438.88C1368.48 438.24 1366.48 437.04 1366.48 433.92C1366.48 430.48 1370 428.56 1375.2 428.56C1380.24 428.56 1384.08 430.32 1384.64 434.16H1391.44C1390.56 427.12 1385.04 422.64 1375.52 422.64C1364.64 422.64 1359.6 427.84 1359.6 434.56C1359.6 440.64 1363.52 443.68 1369.28 444.72L1378.32 446.24C1383.44 447.12 1385.68 449.04 1385.68 452.56C1385.68 456.96 1381.68 459.12 1375.6 459.12C1369.52 459.12 1365.52 456.88 1364.88 452.32H1358C1358.88 460 1364.48 465.04 1375.92 465.04C1386.8 465.04 1392.48 459.04 1392.48 452.4C1392.48 445.04 1388 441.44 1380.96 440.24L1376.4 439.52L1372.56 438.88Z" fill="#274867"/>
<path d="M517.667 195H531.347V126.48H534.227L552.227 164.04H566.867L584.987 126.48H587.867V195H601.547V109.32H578.627L561.107 146.64H558.227L540.467 109.32H517.667V195ZM648.475 132.36C629.275 132.36 617.635 145.8 617.635 164.4C617.635 183.12 629.275 196.56 648.475 196.56C667.675 196.56 679.315 183.12 679.315 164.4C679.315 145.8 667.675 132.36 648.475 132.36ZM648.475 185.04C636.595 185.04 631.195 175.32 631.195 164.4C631.195 153.72 636.595 143.88 648.475 143.88C660.355 143.88 665.755 153.72 665.755 164.4C665.755 175.32 660.355 185.04 648.475 185.04ZM717.277 132.36C700.837 132.36 690.877 146.04 690.877 164.4C690.877 182.64 700.717 196.56 717.277 196.56C726.397 196.56 731.917 193.32 735.277 189.12H738.157V195H751.237V107.76H737.677V139.8H734.797C731.557 135.48 726.277 132.36 717.277 132.36ZM721.117 185.04C709.957 185.04 704.437 176.28 704.437 164.4C704.437 152.64 709.957 143.88 721.117 143.88C732.997 143.88 738.037 153.72 738.037 164.4C738.037 175.32 732.997 185.04 721.117 185.04ZM824.906 161.04C824.546 145.2 814.826 132.36 796.466 132.36C777.746 132.36 766.346 144.96 766.346 164.04C766.346 183.12 777.626 196.56 796.826 196.56C812.666 196.56 821.786 188.64 824.066 177.24H810.266C808.466 182.16 804.266 185.04 796.946 185.04C785.906 185.04 780.146 178.08 779.786 165.6H824.906V161.04ZM796.346 143.16C805.346 143.16 810.146 148.68 810.986 155.52H780.386C781.946 148.44 786.746 143.16 796.346 143.16ZM839.907 107.76V195H853.467V107.76H839.907Z" fill="#274867"/>
<path d="M226.681 815H252.001L278.281 729.32H263.401L242.281 800.84H236.521L215.401 729.32H200.401L226.681 815ZM303.784 740.84V727.76H289.864V740.84H303.784ZM303.544 753.92H289.984V815H303.544V753.92ZM377.519 781.04C377.159 765.2 367.439 752.36 349.079 752.36C330.359 752.36 318.959 764.96 318.959 784.04C318.959 803.12 330.239 816.56 349.439 816.56C365.279 816.56 374.399 808.64 376.679 797.24H362.879C361.079 802.16 356.879 805.04 349.559 805.04C338.519 805.04 332.759 798.08 332.399 785.6H377.519V781.04ZM348.959 763.16C357.959 763.16 362.759 768.68 363.599 775.52H332.999C334.559 768.44 339.359 763.16 348.959 763.16ZM419.16 772.28L410.28 799.28H407.4L401.16 753.92H388.2L396.72 815H415.32L425.16 785.24H428.04L437.76 815H456.24L464.88 753.92H452.04L445.92 799.4H443.04L434.28 772.28H419.16Z" fill="#274867"/>
<path d="M839.52 789.08C837.24 798.2 830.28 803.48 819.72 803.48C802.08 803.48 794.04 789.08 794.04 772.16C794.04 755.24 802.2 740.84 819.84 740.84C829.92 740.84 835.8 744.92 838.56 753.08H853.68C850.56 737.84 838.08 727.76 819.84 727.76C794.04 727.76 779.4 746.36 779.4 772.16C779.4 797.96 793.92 816.56 819.72 816.56C839.16 816.56 851.76 805.28 854.64 789.08H839.52ZM897.065 752.36C877.865 752.36 866.225 765.8 866.225 784.4C866.225 803.12 877.865 816.56 897.065 816.56C916.265 816.56 927.905 803.12 927.905 784.4C927.905 765.8 916.265 752.36 897.065 752.36ZM897.065 805.04C885.185 805.04 879.785 795.32 879.785 784.4C879.785 773.72 885.185 763.88 897.065 763.88C908.945 763.88 914.345 773.72 914.345 784.4C914.345 795.32 908.945 805.04 897.065 805.04ZM999.587 815V776.84C999.587 761.6 991.907 752.36 976.667 752.36C968.507 752.36 962.507 755.12 959.027 759.8H956.147V753.92H943.067V815H956.627V782.36C956.627 772.76 962.747 764.48 972.467 764.48C981.467 764.48 986.027 769.52 986.027 779.48V815H999.587ZM1034.4 753.92V736.16H1020.84V753.92H1011.12V765.44H1020.84V797C1020.84 810.92 1029.96 815 1043.52 815H1048.8V803.24H1043.76C1036.92 803.24 1034.4 800.36 1034.4 795.2V765.44H1048.8V753.92H1034.4ZM1102.98 753.92H1097.82C1088.34 753.92 1083.3 757.64 1080.78 761H1077.9V753.92H1064.82V815H1078.38V786.44C1078.38 773.6 1084.98 766.52 1097.46 766.52H1102.98V753.92ZM1142.92 752.36C1123.72 752.36 1112.08 765.8 1112.08 784.4C1112.08 803.12 1123.72 816.56 1142.92 816.56C1162.12 816.56 1173.76 803.12 1173.76 784.4C1173.76 765.8 1162.12 752.36 1142.92 752.36ZM1142.92 805.04C1131.04 805.04 1125.64 795.32 1125.64 784.4C1125.64 773.72 1131.04 763.88 1142.92 763.88C1154.8 763.88 1160.2 773.72 1160.2 784.4C1160.2 795.32 1154.8 805.04 1142.92 805.04ZM1188.93 727.76V815H1202.49V727.76H1188.93ZM1221.15 727.76V815H1234.71V727.76H1221.15ZM1308.34 781.04C1307.98 765.2 1298.26 752.36 1279.9 752.36C1261.18 752.36 1249.78 764.96 1249.78 784.04C1249.78 803.12 1261.06 816.56 1280.26 816.56C1296.1 816.56 1305.22 808.64 1307.5 797.24H1293.7C1291.9 802.16 1287.7 805.04 1280.38 805.04C1269.34 805.04 1263.58 798.08 1263.22 785.6H1308.34V781.04ZM1279.78 763.16C1288.78 763.16 1293.58 768.68 1294.42 775.52H1263.82C1265.38 768.44 1270.18 763.16 1279.78 763.16ZM1361.5 753.92H1356.34C1346.86 753.92 1341.82 757.64 1339.3 761H1336.42V753.92H1323.34V815H1336.9V786.44C1336.9 773.6 1343.5 766.52 1355.98 766.52H1361.5V753.92Z" fill="#274867"/>
<path d="M613.615 1334.32V1388.56C613.615 1400.56 606.655 1408.48 593.215 1408.48C579.895 1408.48 572.815 1400.56 572.815 1388.56V1334.32H558.415V1388.92C558.415 1409.68 570.775 1421.56 593.215 1421.56C615.655 1421.56 628.015 1409.68 628.015 1388.92V1334.32H613.615ZM695.335 1375.24C694.015 1364.56 685.135 1357.36 670.255 1357.36C652.975 1357.36 645.175 1365.64 645.175 1375.96C645.175 1385.56 651.655 1390.48 660.775 1392.04L673.495 1394.2C680.575 1395.52 683.455 1397.68 683.455 1402.36C683.455 1408 678.415 1410.28 670.615 1410.28C662.575 1410.28 657.535 1407.76 656.455 1401.52H642.895C644.215 1413.64 652.975 1421.56 670.855 1421.56C688.135 1421.56 697.015 1412.2 697.015 1402C697.015 1390.6 689.575 1384.84 678.415 1383.04L666.535 1381.12C661.375 1380.28 658.735 1378.96 658.735 1375C658.735 1370.56 663.175 1368.64 669.775 1368.64C676.015 1368.64 680.935 1370.08 681.775 1375.24H695.335ZM766.285 1386.04C765.925 1370.2 756.205 1357.36 737.845 1357.36C719.125 1357.36 707.725 1369.96 707.725 1389.04C707.725 1408.12 719.005 1421.56 738.205 1421.56C754.045 1421.56 763.165 1413.64 765.445 1402.24H751.645C749.845 1407.16 745.645 1410.04 738.325 1410.04C727.285 1410.04 721.525 1403.08 721.165 1390.6H766.285V1386.04ZM737.725 1368.16C746.725 1368.16 751.525 1373.68 752.365 1380.52H721.765C723.325 1373.44 728.125 1368.16 737.725 1368.16ZM819.446 1358.92H814.286C804.806 1358.92 799.766 1362.64 797.246 1366H794.366V1358.92H781.286V1420H794.846V1391.44C794.846 1378.6 801.446 1371.52 813.926 1371.52H819.446V1358.92Z" fill="#274867"/>
</g>
<defs>
<clipPath id="clip0_937_676">
<rect width="1474" height="1578" fill="white"/>
</clipPath>
</defs>
</svg>
